<mxfile host="app.diagrams.net" modified="2021-07-29T02:29:38.330Z" agent="5.0 (Macintosh; Intel Mac OS X 10_15_7) AppleWebKit/537.36 (KHTML, like Gecko) Chrome/90.0.4430.212 Safari/537.36" etag="Xv83Dca1_iA4rc1DzOyg" version="14.8.5" type="github">
  <diagram id="d86MLMpPBG3J-RmfWB3-" name="Page-1">
    <mxGraphModel dx="1298" dy="808" grid="1" gridSize="10" guides="1" tooltips="1" connect="1" arrows="1" fold="1" page="1" pageScale="1" pageWidth="827" pageHeight="1169" math="0" shadow="0">
      <root>
        <mxCell id="0" />
        <mxCell id="1" parent="0" />
        <mxCell id="VBqZWJbieeRDQZpcxDnW-1" value="" style="rounded=1;whiteSpace=wrap;html=1;fillColor=#d5e8d4;strokeColor=#82b366;" vertex="1" parent="1">
          <mxGeometry x="40" y="230" width="100" height="40" as="geometry" />
        </mxCell>
        <mxCell id="VBqZWJbieeRDQZpcxDnW-2" value="" style="rounded=1;whiteSpace=wrap;html=1;fillColor=#d5e8d4;strokeColor=#82b366;" vertex="1" parent="1">
          <mxGeometry x="40" y="290" width="100" height="40" as="geometry" />
        </mxCell>
        <mxCell id="VBqZWJbieeRDQZpcxDnW-3" value="" style="rounded=1;whiteSpace=wrap;html=1;fillColor=#d5e8d4;strokeColor=#82b366;" vertex="1" parent="1">
          <mxGeometry x="40" y="350" width="100" height="40" as="geometry" />
        </mxCell>
        <mxCell id="VBqZWJbieeRDQZpcxDnW-7" value="" style="endArrow=classic;html=1;exitX=1;exitY=0.5;exitDx=0;exitDy=0;entryX=0;entryY=0.5;entryDx=0;entryDy=0;" edge="1" parent="1" source="VBqZWJbieeRDQZpcxDnW-1" target="VBqZWJbieeRDQZpcxDnW-14">
          <mxGeometry width="50" height="50" relative="1" as="geometry">
            <mxPoint x="380" y="600" as="sourcePoint" />
            <mxPoint x="290" y="250" as="targetPoint" />
          </mxGeometry>
        </mxCell>
        <mxCell id="VBqZWJbieeRDQZpcxDnW-8" value="" style="endArrow=classic;html=1;exitX=1;exitY=0.5;exitDx=0;exitDy=0;entryX=0;entryY=0.5;entryDx=0;entryDy=0;" edge="1" parent="1" source="VBqZWJbieeRDQZpcxDnW-2" target="VBqZWJbieeRDQZpcxDnW-14">
          <mxGeometry width="50" height="50" relative="1" as="geometry">
            <mxPoint x="150" y="260" as="sourcePoint" />
            <mxPoint x="310" y="310" as="targetPoint" />
          </mxGeometry>
        </mxCell>
        <mxCell id="VBqZWJbieeRDQZpcxDnW-9" value="" style="endArrow=classic;html=1;exitX=1;exitY=0.5;exitDx=0;exitDy=0;entryX=0;entryY=0.5;entryDx=0;entryDy=0;" edge="1" parent="1" source="VBqZWJbieeRDQZpcxDnW-3" target="VBqZWJbieeRDQZpcxDnW-14">
          <mxGeometry width="50" height="50" relative="1" as="geometry">
            <mxPoint x="150" y="320" as="sourcePoint" />
            <mxPoint x="290" y="370" as="targetPoint" />
          </mxGeometry>
        </mxCell>
        <mxCell id="VBqZWJbieeRDQZpcxDnW-12" value="Paddle Op" style="text;html=1;strokeColor=none;fillColor=none;align=center;verticalAlign=middle;whiteSpace=wrap;rounded=0;" vertex="1" parent="1">
          <mxGeometry x="60" y="190" width="40" height="20" as="geometry" />
        </mxCell>
        <mxCell id="VBqZWJbieeRDQZpcxDnW-16" value="" style="edgeStyle=orthogonalEdgeStyle;rounded=0;orthogonalLoop=1;jettySize=auto;html=1;" edge="1" parent="1" source="VBqZWJbieeRDQZpcxDnW-14" target="VBqZWJbieeRDQZpcxDnW-15">
          <mxGeometry relative="1" as="geometry" />
        </mxCell>
        <mxCell id="VBqZWJbieeRDQZpcxDnW-14" value="Fuse Pass" style="rounded=1;whiteSpace=wrap;html=1;fillColor=#d5e8d4;strokeColor=#82b366;" vertex="1" parent="1">
          <mxGeometry x="240" y="290" width="100" height="40" as="geometry" />
        </mxCell>
        <mxCell id="VBqZWJbieeRDQZpcxDnW-15" value="Fuse Op" style="rounded=1;whiteSpace=wrap;html=1;fillColor=#d5e8d4;strokeColor=#82b366;" vertex="1" parent="1">
          <mxGeometry x="430" y="290" width="100" height="40" as="geometry" />
        </mxCell>
      </root>
    </mxGraphModel>
  </diagram>
</mxfile>
